<svg width="167" height="22" viewBox="0 0 167 22" fill="none" xmlns="http://www.w3.org/2000/svg">
<path d="M18.7372 7.76562H14.3821C14.3026 7.20218 14.1402 6.7017 13.8949 6.2642C13.6496 5.82007 13.3348 5.44223 12.9503 5.13068C12.5658 4.81913 12.1217 4.58049 11.6179 4.41477C11.1207 4.24905 10.5805 4.16619 9.99716 4.16619C8.94318 4.16619 8.0251 4.42803 7.2429 4.9517C6.4607 5.46875 5.85417 6.22443 5.4233 7.21875C4.99242 8.20644 4.77699 9.40625 4.77699 10.8182C4.77699 12.2699 4.99242 13.4896 5.4233 14.4773C5.8608 15.465 6.47064 16.2107 7.25284 16.7145C8.03504 17.2183 8.93987 17.4702 9.96733 17.4702C10.544 17.4702 11.0777 17.3939 11.5682 17.2415C12.0653 17.089 12.5062 16.867 12.8906 16.5753C13.2751 16.277 13.5933 15.9157 13.8452 15.4915C14.1037 15.0672 14.2827 14.5833 14.3821 14.0398L18.7372 14.0597C18.6245 14.9943 18.3428 15.8958 17.892 16.7642C17.4479 17.6259 16.848 18.3982 16.0923 19.081C15.3433 19.7571 14.4484 20.294 13.4077 20.6918C12.3736 21.0829 11.2036 21.2784 9.89773 21.2784C8.08144 21.2784 6.45739 20.8674 5.02557 20.0455C3.60038 19.2235 2.47348 18.0336 1.64489 16.4759C0.822917 14.9181 0.411932 13.0322 0.411932 10.8182C0.411932 8.59754 0.829546 6.70833 1.66477 5.15057C2.5 3.5928 3.63352 2.40625 5.06534 1.59091C6.49716 0.768939 8.10795 0.357954 9.89773 0.357954C11.0777 0.357954 12.1714 0.523674 13.179 0.855113C14.1932 1.18655 15.0914 1.67045 15.8736 2.30682C16.6558 2.93655 17.2921 3.70881 17.7827 4.62358C18.2798 5.53835 18.598 6.5857 18.7372 7.76562ZM28.6456 21.2983C27.1011 21.2983 25.7654 20.9702 24.6385 20.3139C23.5182 19.651 22.6532 18.7296 22.0433 17.5497C21.4335 16.3632 21.1286 14.9877 21.1286 13.4233C21.1286 11.8456 21.4335 10.4669 22.0433 9.28693C22.6532 8.10038 23.5182 7.17898 24.6385 6.52273C25.7654 5.85985 27.1011 5.52841 28.6456 5.52841C30.1901 5.52841 31.5225 5.85985 32.6428 6.52273C33.7696 7.17898 34.638 8.10038 35.2479 9.28693C35.8577 10.4669 36.1626 11.8456 36.1626 13.4233C36.1626 14.9877 35.8577 16.3632 35.2479 17.5497C34.638 18.7296 33.7696 19.651 32.6428 20.3139C31.5225 20.9702 30.1901 21.2983 28.6456 21.2983ZM28.6655 18.017C29.3681 18.017 29.9548 17.8182 30.4254 17.4205C30.8961 17.0161 31.2507 16.4659 31.4893 15.7699C31.7346 15.0739 31.8572 14.2817 31.8572 13.3935C31.8572 12.5052 31.7346 11.7131 31.4893 11.017C31.2507 10.321 30.8961 9.77083 30.4254 9.36648C29.9548 8.96212 29.3681 8.75994 28.6655 8.75994C27.9562 8.75994 27.3596 8.96212 26.8757 9.36648C26.3984 9.77083 26.0372 10.321 25.7919 11.017C25.5533 11.7131 25.4339 12.5052 25.4339 13.3935C25.4339 14.2817 25.5533 15.0739 25.7919 15.7699C26.0372 16.4659 26.3984 17.0161 26.8757 17.4205C27.3596 17.8182 27.9562 18.017 28.6655 18.017ZM48.7109 14.4972V5.72727H52.9467V21H48.88V18.2259H48.7209C48.3762 19.1207 47.8028 19.84 47.0007 20.3835C46.2053 20.9271 45.2341 21.1989 44.0874 21.1989C43.0665 21.1989 42.1683 20.9669 41.3928 20.5028C40.6172 20.0388 40.0107 19.3793 39.5732 18.5241C39.1423 17.669 38.9235 16.6449 38.9169 15.4517V5.72727H43.1527V14.696C43.1593 15.5975 43.4013 16.3101 43.8786 16.8338C44.3558 17.3575 44.9955 17.6193 45.7976 17.6193C46.308 17.6193 46.7853 17.5033 47.2294 17.2713C47.6735 17.0327 48.0315 16.6813 48.3033 16.2173C48.5817 15.7533 48.7176 15.1799 48.7109 14.4972ZM56.3349 21V5.72727H60.4414V8.39205H60.6005C60.8789 7.44413 61.3462 6.72822 62.0025 6.24432C62.6587 5.75379 63.4144 5.50852 64.2695 5.50852C64.4817 5.50852 64.7103 5.52178 64.9556 5.54829C65.2009 5.57481 65.4163 5.61127 65.6019 5.65767V9.41619C65.4031 9.35653 65.128 9.3035 64.7766 9.2571C64.4253 9.2107 64.1038 9.1875 63.8121 9.1875C63.189 9.1875 62.6322 9.32339 62.1417 9.59517C61.6578 9.86032 61.2733 10.2315 60.9883 10.7088C60.7099 11.1861 60.5707 11.7363 60.5707 12.3594V21H56.3349ZM80.4993 10.0824L76.6214 10.321C76.5552 9.98958 76.4126 9.69129 76.1939 9.42614C75.9751 9.15436 75.6868 8.93892 75.3288 8.77983C74.9775 8.61411 74.5566 8.53125 74.0661 8.53125C73.4098 8.53125 72.8563 8.67045 72.4055 8.94886C71.9548 9.22064 71.7294 9.58523 71.7294 10.0426C71.7294 10.4072 71.8752 10.7154 72.1669 10.9673C72.4586 11.2192 72.959 11.4214 73.6683 11.5739L76.4325 12.1307C77.9174 12.4356 79.0244 12.9261 79.7536 13.6023C80.4827 14.2784 80.8473 15.1667 80.8473 16.267C80.8473 17.268 80.5523 18.1463 79.9624 18.902C79.379 19.6577 78.5769 20.2476 77.5561 20.6719C76.5419 21.0895 75.3719 21.2983 74.0462 21.2983C72.0244 21.2983 70.4136 20.8774 69.2138 20.0355C68.0206 19.187 67.3213 18.0336 67.1158 16.5753L71.282 16.3565C71.4079 16.973 71.7128 17.4437 72.1967 17.7685C72.6806 18.0866 73.3004 18.2457 74.0561 18.2457C74.7985 18.2457 75.3951 18.1032 75.8459 17.8182C76.3033 17.5265 76.5353 17.152 76.5419 16.6946C76.5353 16.3101 76.3729 15.9953 76.0547 15.75C75.7365 15.4981 75.246 15.3059 74.5831 15.1733L71.9382 14.6463C70.4467 14.348 69.3364 13.831 68.6072 13.0952C67.8847 12.3594 67.5234 11.4214 67.5234 10.2812C67.5234 9.30019 67.7886 8.45502 68.3189 7.74574C68.8558 7.03646 69.6082 6.48958 70.576 6.10511C71.5504 5.72064 72.6906 5.52841 73.9964 5.52841C75.9254 5.52841 77.4434 5.93608 78.5504 6.75142C79.6641 7.56676 80.3137 8.67708 80.4993 10.0824ZM90.4748 21.2983C88.9038 21.2983 87.5515 20.9801 86.418 20.3438C85.2911 19.7008 84.4227 18.7926 83.8129 17.6193C83.203 16.4394 82.8981 15.044 82.8981 13.4332C82.8981 11.8622 83.203 10.4834 83.8129 9.29688C84.4227 8.11032 85.2811 7.18561 86.3881 6.52273C87.5018 5.85985 88.8076 5.52841 90.3058 5.52841C91.3133 5.52841 92.2513 5.69081 93.1197 6.01562C93.9947 6.33381 94.757 6.81439 95.4066 7.45739C96.0629 8.10038 96.5733 8.90909 96.9379 9.88352C97.3024 10.8513 97.4847 11.9848 97.4847 13.2841V14.4474H84.5884V11.8224H93.4975C93.4975 11.2126 93.3649 10.6723 93.0998 10.2017C92.8346 9.73106 92.4667 9.36316 91.9961 9.09801C91.5321 8.82623 90.9918 8.69034 90.3754 8.69034C89.7324 8.69034 89.1623 8.83949 88.6651 9.13778C88.1746 9.42945 87.7901 9.82386 87.5117 10.321C87.2333 10.8116 87.0908 11.3584 87.0842 11.9616V14.4574C87.0842 15.2131 87.2234 15.866 87.5018 16.4162C87.7868 16.9664 88.1879 17.3906 88.7049 17.6889C89.2219 17.9872 89.8351 18.1364 90.5444 18.1364C91.015 18.1364 91.4459 18.0701 91.837 17.9375C92.2281 17.8049 92.5629 17.6061 92.8413 17.3409C93.1197 17.0758 93.3318 16.7509 93.4776 16.3665L97.3952 16.625C97.1964 17.5663 96.7887 18.3883 96.1722 19.0909C95.5624 19.7869 94.7736 20.3305 93.8058 20.7216C92.8446 21.1061 91.7343 21.2983 90.4748 21.2983Z" fill="#FED547"/>
<path d="M118.296 7.76562H113.941C113.861 7.20218 113.699 6.7017 113.453 6.2642C113.208 5.82007 112.893 5.44223 112.509 5.13068C112.124 4.81913 111.68 4.58049 111.176 4.41477C110.679 4.24905 110.139 4.16619 109.556 4.16619C108.502 4.16619 107.584 4.42803 106.801 4.9517C106.019 5.46875 105.413 6.22443 104.982 7.21875C104.551 8.20644 104.336 9.40625 104.336 10.8182C104.336 12.2699 104.551 13.4896 104.982 14.4773C105.419 15.465 106.029 16.2107 106.811 16.7145C107.594 17.2183 108.498 17.4702 109.526 17.4702C110.103 17.4702 110.636 17.3939 111.127 17.2415C111.624 17.089 112.065 16.867 112.449 16.5753C112.834 16.277 113.152 15.9157 113.404 15.4915C113.662 15.0672 113.841 14.5833 113.941 14.0398L118.296 14.0597C118.183 14.9943 117.901 15.8958 117.451 16.7642C117.007 17.6259 116.407 18.3982 115.651 19.081C114.902 19.7571 114.007 20.294 112.966 20.6918C111.932 21.0829 110.762 21.2784 109.456 21.2784C107.64 21.2784 106.016 20.8674 104.584 20.0455C103.159 19.2235 102.032 18.0336 101.203 16.4759C100.382 14.9181 99.9705 13.0322 99.9705 10.8182C99.9705 8.59754 100.388 6.70833 101.223 5.15057C102.059 3.5928 103.192 2.40625 104.624 1.59091C106.056 0.768939 107.667 0.357954 109.456 0.357954C110.636 0.357954 111.73 0.523674 112.738 0.855113C113.752 1.18655 114.65 1.67045 115.432 2.30682C116.214 2.93655 116.851 3.70881 117.341 4.62358C117.838 5.53835 118.157 6.5857 118.296 7.76562ZM125.659 21.2884C124.684 21.2884 123.816 21.1193 123.054 20.7812C122.291 20.4366 121.688 19.9295 121.244 19.2599C120.806 18.5838 120.588 17.742 120.588 16.7344C120.588 15.8859 120.743 15.1733 121.055 14.5966C121.367 14.0199 121.791 13.5559 122.328 13.2045C122.865 12.8532 123.475 12.5881 124.157 12.4091C124.847 12.2301 125.569 12.1042 126.325 12.0312C127.213 11.9384 127.929 11.8523 128.473 11.7727C129.016 11.6866 129.411 11.5606 129.656 11.3949C129.901 11.2292 130.024 10.9839 130.024 10.6591V10.5994C130.024 9.9697 129.825 9.48248 129.427 9.13778C129.036 8.79309 128.479 8.62074 127.757 8.62074C126.994 8.62074 126.388 8.78977 125.937 9.12784C125.486 9.45928 125.188 9.87689 125.042 10.3807L121.125 10.0625C121.324 9.13447 121.715 8.33239 122.298 7.65625C122.881 6.97348 123.634 6.44981 124.555 6.08523C125.483 5.71401 126.557 5.52841 127.777 5.52841C128.625 5.52841 129.437 5.62784 130.213 5.8267C130.995 6.02557 131.688 6.33381 132.291 6.75142C132.901 7.16903 133.381 7.70597 133.733 8.36222C134.084 9.01184 134.26 9.79072 134.26 10.6989V21H130.243V18.8821H130.123C129.878 19.3594 129.55 19.7803 129.139 20.1449C128.728 20.5028 128.234 20.7846 127.657 20.9901C127.081 21.1889 126.414 21.2884 125.659 21.2884ZM126.872 18.3651C127.495 18.3651 128.045 18.2424 128.522 17.9972C129 17.7453 129.374 17.4072 129.646 16.983C129.918 16.5587 130.054 16.0781 130.054 15.5412V13.9205C129.921 14.0066 129.739 14.0862 129.507 14.1591C129.281 14.2254 129.026 14.2884 128.741 14.348C128.456 14.401 128.171 14.4508 127.886 14.4972C127.601 14.5369 127.342 14.5734 127.11 14.6065C126.613 14.6795 126.179 14.7955 125.808 14.9545C125.437 15.1136 125.148 15.3291 124.943 15.6009C124.737 15.866 124.635 16.1974 124.635 16.5952C124.635 17.1719 124.843 17.6127 125.261 17.9176C125.685 18.2159 126.222 18.3651 126.872 18.3651ZM151.238 5.72727L145.898 21H141.125L135.786 5.72727H140.26L143.432 16.6548H143.591L146.753 5.72727H151.238ZM159.873 21.2983C158.302 21.2983 156.95 20.9801 155.816 20.3438C154.69 19.7008 153.821 18.7926 153.211 17.6193C152.601 16.4394 152.297 15.044 152.297 13.4332C152.297 11.8622 152.601 10.4834 153.211 9.29688C153.821 8.11032 154.68 7.18561 155.787 6.52273C156.9 5.85985 158.206 5.52841 159.704 5.52841C160.712 5.52841 161.65 5.69081 162.518 6.01562C163.393 6.33381 164.155 6.81439 164.805 7.45739C165.461 8.10038 165.972 8.90909 166.336 9.88352C166.701 10.8513 166.883 11.9848 166.883 13.2841V14.4474H153.987V11.8224H162.896C162.896 11.2126 162.763 10.6723 162.498 10.2017C162.233 9.73106 161.865 9.36316 161.395 9.09801C160.931 8.82623 160.39 8.69034 159.774 8.69034C159.131 8.69034 158.561 8.83949 158.064 9.13778C157.573 9.42945 157.189 9.82386 156.91 10.321C156.632 10.8116 156.489 11.3584 156.483 11.9616V14.4574C156.483 15.2131 156.622 15.866 156.9 16.4162C157.185 16.9664 157.586 17.3906 158.103 17.6889C158.62 17.9872 159.234 18.1364 159.943 18.1364C160.413 18.1364 160.844 18.0701 161.235 17.9375C161.627 17.8049 161.961 17.6061 162.24 17.3409C162.518 17.0758 162.73 16.7509 162.876 16.3665L166.794 16.625C166.595 17.5663 166.187 18.3883 165.571 19.0909C164.961 19.7869 164.172 20.3305 163.204 20.7216C162.243 21.1061 161.133 21.2983 159.873 21.2983Z" fill="#1616C7"/>
</svg>
